<svg viewBox="0 0 820 250" role="img" aria-label="Контрастный автофокус: камера двигает объектив и ищет максимум резкости">
      <line x1="70" y1="200" x2="800" y2="200" stroke="var(--muted)" stroke-width="1.5"/><line x1="70" y1="200" x2="70" y2="24" stroke="var(--muted)" stroke-width="1.5"/>
      <text x="76" y="22" font-size="12.5" fill="var(--muted)">резкость (контраст)</text>
      <text x="800" y="222" text-anchor="end" font-size="12.5" fill="var(--muted)">положение объектива →</text>
      <polyline points="80,190.0 90,190.0 100,190.0 110,190.0 120,190.0 130,190.0 140,190.0 150,190.0 160,190.0 170,190.0 180,189.9 190,189.9 200,189.7 210,189.6 220,189.3 230,188.9 240,188.2 250,187.3 260,185.9 270,183.9 280,181.2 290,177.6 300,172.9 310,166.9 320,159.6 330,150.8 340,140.5 350,128.9 360,116.2 370,102.8 380,89.3 390,76.3 400,64.4 410,54.2 420,46.5 430,41.7 440,40.0 450,41.7 460,46.5 470,54.2 480,64.4 490,76.3 500,89.3 510,102.8 520,116.2 530,128.9 540,140.5 550,150.8 560,159.6 570,166.9 580,172.9 590,177.6 600,181.2 610,183.9 620,185.9 630,187.3 640,188.2 650,188.9 660,189.3 670,189.6 680,189.7 690,189.9 700,189.9 710,190.0 720,190.0 730,190.0 740,190.0 750,190.0 760,190.0 770,190.0 780,190.0 790,190.0 800,190.0" fill="none" stroke="var(--line)" stroke-width="3"/>
      <circle cx="150" cy="190.0" r="13" fill="var(--t)"/><text x="150" y="194.5" text-anchor="middle" font-size="12.5" font-weight="700" fill="#fff">1</text><circle cx="260" cy="185.9" r="13" fill="var(--t)"/><text x="260" y="190.4" text-anchor="middle" font-size="12.5" font-weight="700" fill="#fff">2</text><circle cx="370" cy="102.8" r="13" fill="var(--t)"/><text x="370" y="107.3" text-anchor="middle" font-size="12.5" font-weight="700" fill="#fff">3</text><circle cx="500" cy="89.3" r="13" fill="var(--t)"/><text x="500" y="93.8" text-anchor="middle" font-size="12.5" font-weight="700" fill="#fff">4</text><circle cx="440" cy="40.0" r="13" fill="var(--iso)"/><text x="440" y="44.5" text-anchor="middle" font-size="12.5" font-weight="700" fill="#fff">5</text>
      <text x="440" y="20" text-anchor="middle" font-size="13" font-weight="700" fill="var(--iso)">максимум = резко</text>
      <text x="560" y="75" font-size="12.5" fill="var(--muted)">4: стало хуже — проскочил,</text>
      <text x="560" y="92" font-size="12.5" fill="var(--muted)">значит, надо назад</text>
      <text x="80" y="242" font-size="12.5" fill="var(--muted)">1→2→3: резкость растёт, камера крутит дальше</text>
    </svg>
